PathFileType	4	(X/Y/Z)	S:\OneDrive - The University of Tokyo\ìåëÂéˆã∆\ÉoÉCÉÅÉJ\ë™íË\hirabayashi_2\Trimmed\Trimmed_Trimmed_ShSs3-51P.trc
DataRate	CameraRate	NumFrames	NumMarkers	Units	OrigDataRate	OrigDataStartFrame	OrigNumFrames
200.00	200.00	      5	51	mm	200.00	1	      1718
Frame#	Time	handRI			handRO			wrRI			wrRO			elbRI			elbRO			shRF			shRU			shRB			handLI			handLO			wrLI			wrLO			elbLI			elbLO			shLF			shLU			shLB			toeR			baRI			baRO			heelR			anRI			anRO			knRI			knRO			troR			toeL			baLI			baLO			heelL			anLI			anLO			knLI			knLO			troL			head			earR			earL			clav			c7			ribR			ribL			xiph			t12			ASISR			ASISL			PSISR			PSISL			ThR			ThL			
		X1	Y1	Z1	X2	Y2	Z2	X3	Y3	Z3	X4	Y4	Z4	X5	Y5	Z5	X6	Y6	Z6	X7	Y7	Z7	X8	Y8	Z8	X9	Y9	Z9	X10	Y10	Z10	X11	Y11	Z11	X12	Y12	Z12	X13	Y13	Z13	X14	Y14	Z14	X15	Y15	Z15	X16	Y16	Z16	X17	Y17	Z17	X18	Y18	Z18	X19	Y19	Z19	X20	Y20	Z20	X21	Y21	Z21	X22	Y22	Z22	X23	Y23	Z23	X24	Y24	Z24	X25	Y25	Z25	X26	Y26	Z26	X27	Y27	Z27	X28	Y28	Z28	X29	Y29	Z29	X30	Y30	Z30	X31	Y31	Z31	X32	Y32	Z32	X33	Y33	Z33	X34	Y34	Z34	X35	Y35	Z35	X36	Y36	Z36	X37	Y37	Z37	X38	Y38	Z38	X39	Y39	Z39	X40	Y40	Z40	X41	Y41	Z41	X42	Y42	Z42	X43	Y43	Z43	X44	Y44	Z44	X45	Y45	Z45	X46	Y46	Z46	X47	Y47	Z47	X48	Y48	Z48	X49	Y49	Z49	X50	Y50	Z50	X51	Y51	Z51	

1	0.000	-591.22369	1577.35291	1642.75208	-612.78693	1670.73010	1655.54736	-630.85468	1583.65247	1709.43237	-686.08179	1646.24231	1685.68420	-747.35065	1708.14783	1930.17334	-667.24030	1709.58459	1924.36768	-768.75543	1895.14246	2124.73511	-717.14642	1898.55945	2218.63306	-722.17944	1801.01855	2269.87207	-1236.55200	1638.92932	1637.44861	-1204.81177	1733.84973	1670.99524	-1198.16028	1648.23547	1711.43103	-1140.88708	1701.24976	1687.15247	-1082.32556	1736.76343	1945.51514	-1160.68494	1767.06226	1934.03088	-1043.03638	1927.10181	2136.04761	-1076.46423	1936.06177	2237.45728	-1103.45691	1843.51160	2278.69067	-975.41913	312.87958	2256.25000	-1014.35504	389.31512	2248.05518	-931.61786	389.41580	2293.81226	-1000.47052	548.89069	2377.91138	-1017.97949	535.92426	2276.83862	-934.65759	522.40814	2332.82935	-971.38806	896.90045	2165.63257	-857.81012	897.84106	2189.91650	-791.86554	1321.43298	2118.57446	-1068.72876	327.91650	2253.09521	-1023.44910	393.59613	2249.17725	-1120.42078	400.01791	2289.46191	-1050.11804	556.68311	2373.19751	-1016.01276	556.13220	2271.44580	-1118.12170	529.22748	2324.14746	-1021.20435	916.72766	2164.55127	-1134.32397	932.09314	2182.72559	-1133.34167	1347.97644	2130.91113	-882.96344	2057.95532	2499.40210	-794.31079	2024.94104	2338.40649	-968.01361	2042.69653	2349.16797	-894.71204	1904.34241	2132.93970	-905.35846	1894.31445	2327.30493	-784.41663	1577.23352	2083.96777	-1101.57971	1587.79688	2091.95410	-921.10718	1722.70630	2020.54126	-938.84863	1555.26526	2206.46191	-822.67041	1403.85083	1996.88220	-1103.06140	1442.65454	2010.93274	-889.30151	1467.78821	2186.21729	-989.58148	1466.65466	2184.14697	-836.24121	1147.12195	2195.85010	-1123.75989	1166.56555	2198.28833	
2	0.005	-591.36047	1577.28381	1642.79871	-612.84875	1670.73706	1655.54858	-630.96027	1583.66614	1709.43347	-686.13159	1646.26697	1685.68188	-747.48389	1708.21545	1930.03394	-667.38269	1709.44739	1924.38892	-769.48236	1893.87195	2124.92432	-717.51056	1898.12012	2218.58887	-722.23914	1800.77344	2270.28955	-1236.46594	1638.91956	1637.33118	-1204.72266	1733.76257	1670.87769	-1197.44885	1648.82019	1711.46033	-1140.81055	1701.26416	1687.05444	-1082.24695	1736.60327	1945.31311	-1160.63831	1766.97729	1933.84717	-1042.44507	1926.09558	2135.91089	-1076.42432	1935.95264	2237.20093	-1103.88806	1843.97839	2278.80688	-975.66327	311.75253	2274.40601	-1014.32324	388.57086	2265.30933	-931.59204	389.13443	2310.90137	-1000.47894	549.26648	2393.11621	-1017.16180	535.35974	2292.70264	-934.79041	522.57739	2348.52734	-971.71149	895.84027	2177.69995	-858.06683	896.59467	2201.67358	-791.97729	1319.16125	2125.22388	-1068.84485	327.09756	2270.99902	-1023.35620	392.62546	2266.61426	-1120.33545	399.68188	2306.35645	-1049.99939	557.08191	2388.17383	-1015.74591	555.42957	2287.13867	-1118.00439	528.97876	2339.78027	-1021.28735	915.27118	2176.28662	-1134.17517	930.83234	2193.80273	-1133.89941	1346.19629	2137.32886	-883.20178	2059.03394	2498.11328	-794.92450	2024.77405	2337.43042	-968.28357	2042.61487	2347.86353	-895.03107	1902.18250	2132.80713	-905.46216	1894.12683	2327.30298	-784.76892	1574.91895	2087.33301	-1102.16931	1585.41992	2095.47266	-921.08832	1720.02246	2021.17236	-939.07764	1554.19299	2210.28784	-823.10132	1400.50830	2002.72949	-1103.30347	1439.35474	2016.16821	-889.29785	1466.65540	2191.17480	-989.57690	1465.26147	2189.22070	-836.15973	1145.99524	2204.74854	-1123.96436	1165.54443	2206.91211	
3	0.010	-591.42456	1577.28003	1642.83350	-612.92322	1670.70410	1655.54968	-631.02496	1583.69653	1709.47937	-686.15955	1646.26782	1685.71118	-747.66425	1708.24634	1929.93311	-667.56897	1709.27600	1924.47266	-769.96191	1892.13135	2125.41992	-717.92810	1897.60974	2218.64551	-721.90826	1800.37122	2270.94141	-1236.40735	1638.87170	1637.20190	-1204.63623	1733.71948	1670.80737	-1198.00610	1648.16089	1711.12622	-1140.72656	1701.20007	1686.91138	-1082.16943	1736.41589	1945.19189	-1160.56665	1766.85071	1933.73584	-1041.89941	1925.27087	2135.74146	-1076.26831	1935.74280	2236.83911	-1104.27710	1844.31030	2278.91675	-975.69244	311.31821	2292.03760	-1014.41968	387.99420	2281.98804	-931.72833	388.99808	2327.52124	-1000.63239	550.00958	2407.98682	-1017.07941	535.36603	2307.82666	-934.86035	522.78979	2363.68555	-971.92566	894.00220	2189.21509	-858.59369	895.44946	2213.33105	-792.47955	1317.62756	2132.01782	-1068.92261	326.29761	2288.59448	-1023.66309	392.13214	2283.24365	-1120.02722	399.35187	2322.75781	-1049.59644	557.67163	2403.23218	-1015.68182	555.02759	2301.96753	-1117.80811	528.92322	2355.03687	-1021.35455	913.52783	2187.84473	-1134.78357	929.34686	2205.44629	-1134.14587	1344.07581	2143.85522	-883.41174	2060.00562	2496.94189	-795.27875	2024.68701	2336.15527	-968.53900	2042.71313	2346.93359	-895.62311	1900.66174	2132.83618	-905.61597	1893.92017	2327.51807	-785.33142	1572.44531	2090.64429	-1102.70593	1583.50513	2098.91797	-921.60059	1717.13806	2023.16785	-942.45349	1554.32190	2212.90576	-823.50336	1397.00208	2008.25208	-1103.86438	1435.93396	2021.55078	-889.72644	1468.06079	2198.43164	-989.87006	1463.94666	2194.43481	-836.68280	1144.63147	2213.65503	-1124.41260	1164.11682	2215.49438	
4	0.015	-591.50269	1577.27368	1642.87012	-612.97369	1670.71863	1655.63538	-631.15656	1583.67456	1709.57092	-686.21149	1646.27466	1685.74231	-747.85052	1708.36902	1929.89612	-667.76886	1709.03528	1924.62305	-770.76178	1890.99146	2125.46094	-718.34302	1897.07410	2218.85425	-721.91199	1799.72375	2271.44727	-1236.32446	1638.85498	1637.10498	-1204.53833	1733.60559	1670.73376	-1197.86780	1648.15564	1711.04846	-1140.63940	1701.15393	1686.82874	-1082.09155	1736.16272	1945.07397	-1160.53577	1766.64880	1933.65955	-1041.49768	1924.47803	2135.55664	-1076.08923	1935.42773	2236.42676	-1104.68176	1844.49695	2279.10522	-975.89716	310.94449	2309.06909	-1014.54486	387.20331	2298.40137	-931.67566	388.96445	2343.58472	-1000.29376	550.86810	2422.57642	-1016.73004	534.84796	2322.63452	-934.58063	523.12427	2378.28076	-972.42670	892.78253	2200.56714	-858.83197	894.30164	2224.85791	-792.89587	1315.49219	2138.59839	-1069.08435	326.01959	2305.66650	-1023.91803	391.74368	2299.58105	-1120.04773	399.36783	2339.09521	-1049.70007	558.57867	2417.80542	-1015.74518	554.99023	2316.45361	-1117.76062	529.43542	2370.00146	-1021.54492	912.38232	2198.74878	-1134.97827	928.05035	2216.58423	-1134.48352	1342.06665	2150.10913	-883.97925	2061.07544	2495.63330	-795.53778	2024.37378	2335.11230	-968.84351	2042.52112	2345.89795	-895.74432	1898.71289	2133.00244	-905.64282	1893.71338	2327.66919	-785.82080	1570.22107	2093.92847	-1102.73706	1580.98816	2102.14087	-922.18994	1714.14673	2025.14465	-942.94257	1553.04346	2216.76880	-824.40985	1393.42078	2013.99341	-1104.58289	1432.55872	2026.74756	-890.46661	1466.55420	2202.85132	-990.63184	1462.66541	2199.18262	-836.47565	1144.04907	2222.15674	-1124.65833	1162.99023	2223.67065	
5	0.020	-591.48602	1577.28223	1642.97900	-613.00806	1670.67603	1655.70752	-631.22156	1583.61255	1709.66125	-686.21912	1646.30945	1685.82935	-748.04919	1708.46082	1929.91455	-667.68219	1708.60474	1924.92419	-771.14081	1889.84473	2125.86938	-718.80261	1896.47668	2219.14355	-722.12958	1799.31555	2271.84595	-1236.26038	1638.85571	1637.05212	-1204.43542	1733.54163	1670.72229	-1197.81726	1648.01196	1710.96252	-1140.60168	1701.07153	1686.73413	-1082.12805	1735.78101	1944.96765	-1160.46521	1766.29187	1933.62402	-1040.91333	1923.11865	2135.36792	-1075.91003	1935.19836	2235.99731	-1104.37683	1844.71716	2279.95679	-976.04285	310.45682	2325.71899	-1014.54987	386.93307	2314.47925	-931.72412	388.86536	2359.09985	-1000.10785	551.84045	2436.69165	-1017.25177	534.44287	2336.92847	-934.35431	523.43262	2392.62500	-972.54553	891.43237	2211.69629	-858.90332	893.48578	2235.58203	-792.89398	1313.44421	2145.13867	-1069.05688	325.46585	2322.37915	-1024.37769	391.26196	2315.41553	-1120.44983	399.39108	2355.10986	-1049.59375	559.33594	2431.97192	-1015.68573	554.78131	2330.68530	-1117.74292	529.71460	2384.38403	-1021.62952	910.76147	2209.52441	-1134.98438	926.67462	2227.01929	-1135.18335	1340.19836	2156.04688	-883.94000	2061.68823	2494.59277	-795.65869	2023.97339	2334.19580	-968.76465	2042.53210	2344.53638	-895.88306	1896.39429	2133.04907	-905.62103	1893.55286	2328.08960	-786.38861	1568.04395	2097.13281	-1103.36365	1579.07104	2105.06641	-922.55103	1710.83130	2027.17712	-941.77911	1551.97400	2220.23877	-824.81201	1390.29626	2019.72266	-1105.99377	1429.31494	2030.50500	-890.55963	1464.28479	2206.42432	-990.78760	1461.27991	2203.78369	-836.82239	1142.97205	2230.48950	-1125.14380	1162.18384	2231.67358	
